<svg xmlns="http://www.w3.org/2000/svg" viewBox="0 0 238.64 183.58" class="h-8 w-8"><path fill="black" d="m196.34,30.55c-2.73-2.36-7.55-4.79-10.99-5.88-1.72-.54-3.56-1.03-5.26-1.36-8.56-1.7-16.87-2.61-25.6-1.8-.1,0-.19.02-.29.03-.06,0-.12.01-.18.02-.51.05-1.02.11-1.53.17-10.85,1.29-21.27,5.03-30.63,10.67l-2.59,1.56-3.19-2.04S63.29,1.18,63.27,1.16c-1.32-.77-3.25-1.16-4.77-1.16s-3.47.4-4.78,1.16c-1.99,1.16-3.55,3.03-4.3,5.34l-3.42,10.66c-.37,1.14-.55,2.33-.55,3.53,0,1.34.23,2.67.69,3.95l10.31,28.49c.02.06-.05.12-.1.09L18.88,31.41c-1.61-.93-3.44-1.42-5.29-1.42-4.65,0-8.71,2.97-10.11,7.39l-2.88,9.01c-.86,2.68-.81,5.6.15,8.22l10.25,28.31c.52,1.5,1.32,2.89,2.38,4.12l6.7,7.78c1.39,1.59,3.19,2.85,5.18,3.66l59.64,23.7s.06.08.02.12l-22.04,22.33c-3.28,3.35-3.91,8.49-1.51,12.51l12.52,21.13c1.81,3.01,4.94,4.89,8.39,5.01l6.84.32h.3c2.92,0,5.75-1.28,7.74-3.51l9.45-9.59,5.48-5.95,1.51,1.1c9.99,7.29,22.62,11.62,38.6,13.21,2.64.26,5.3.39,7.9.39,9.51,0,19.03-1.36,27.91-4.82,3.32-1.29,6.54-2.83,9.66-4.55,5.66-3.11,11.29-6.57,16.19-10.8.94-.81,1.84-1.65,2.71-2.52,5.07-5.07,9.08-11.12,12.28-17.53,4.16-8.34,7.37-17.25,8.83-26.48.21-1.34.39-2.69.52-4.05.24-2.39.38-4.81.4-7.2.04-4.66-1.5-7.18-3.62-9.66l-1.08-1.17,1.7-1.76c3.14-3.24,3.94-8.15,1.99-12.21l-19.38-40.56c-1.77-3.78-5.63-6.22-9.83-6.22-.29,0-.58,0-.9.04l-11.14.82h0Z"></path><path fill="white" d="m109.71,41.42c-8.08,6.72-14.75,15.01-19.53,24.3-.54,1.04-1.75,1.52-2.84,1.08l-13.99-5.57c-.52-.21-.98-.54-1.35-.96l-7.07-8.22c-.28-.32-.5-.69-.65-1.1l-10.48-28.98c-.26-.72-.27-1.5-.04-2.21l3.42-10.66c.27-.83,1.24-1.22,2-.77l50.26,29.27c1.41.82,1.53,2.77.28,3.82Z"></path><path fill="white" d="m192.48,121.82c2.64-.21,4.99,1.75,5.23,4.39.92,10.14,1.35,25.15-3.32,34.01-.13.25-.37.62-.55.84-.19.24-.39.46-.61.67-.25.24-.52.45-.82.64-11.17,7.24-25.45,9.09-39.68,7.67-12.94-1.29-24.81-4.53-34.6-11.69-.82-.61-.85-1.83-.18-2.6l11.51-13.11c1.36-1.55,3.47-5.16,3.47-5.16,0,0,3.98-5.19,4.44-8.28l2.82-19.16c.59-4.12-1.34-8.13-4.93-10.2-5.82-3.38-21.54-12.54-39.64-23.09-.9-.53-1.28-1.64-.89-2.61.33-.82.7-1.65,1.08-2.46,5.12-10.99,12.98-20.35,22.6-27.31,3.2-2.31,6.6-4.34,10.2-5.97.29-.13.58-.26.88-.39,2.84-1.23,5.86-2.04,8.97-2.13.29-.01.59-.01.88-.01,4.12,0,9.94,1.71,14.02,3.11,2.29.78,2.99,3.67,1.32,5.41l-20.94,21.82c-2.97,3.1-3.71,7.78-1.87,11.65l19.4,40.6c1.72,3.6,5.39,5.91,9.37,5.91.28,0,.58-.01.86-.04l31-2.5Z"></path><path fill="white" d="m230.17,99.4c0-1.54-1.85-2.31-2.92-1.2l-14.25,14.91h0c-1.39,1.43-2.33,4.2-2.13,6.18.87,8.7.78,21-1.84,30.53h-.01c-.03.09-.04.17-.04.26,0,.68.9,1.15,1.4.58,10.34-11.69,17.7-26.38,19.43-43.66.26-2.56.37-5.09.36-7.6Z"></path><path fill="white" d="m120.2,135.78c1.83.73,2.39,3.05,1.09,4.53l-12.05,13.72-18.23,20.77c-.44.49-1.08.77-1.73.73l-6.64-.31c-.73-.03-1.4-.42-1.78-1.06l-12.47-21.04c-.52-.88-.38-1.99.33-2.72l23.53-23.83c.8-.81,2.02-1.07,3.08-.65l24.86,9.85Z"></path><path fill="white" d="m106.73,92.68c9.41,5.48,17.93,10.44,24.76,14.41.89.52,1.36,1.51,1.21,2.53l-2.93,18.48c-.06.49-.27.92-.58,1.25-.55.64-1.41.96-2.27.79-.17-.02-.32-.06-.49-.13l-33.59-13.34-7.36-2.93-57.23-22.74c-.79-.32-1.5-.82-2.06-1.46l-6.64-7.72c-.37-.43-.67-.93-.86-1.48l-10.26-28.37c-.35-.97-.37-2.03-.06-3.02l2.99-8.37c.47-1.5,2.2-2.16,3.56-1.38,17.8,10.37,45.54,26.52,71.1,41.41,7.16,4.17,14.15,8.24,20.7,12.06"></path><path fill="white" d="m163.53,47.11l.12-.1s.12-.08.2-.11l10.91-5.21.86-.23,16.09-1.35,1.6-.13,2.51-.22,13.67-1.14c.05,0,.11,0,.17,0,.8,0,1.53.46,1.86,1.16l19.41,40.62c.37.77.22,1.69-.37,2.3l-2.36,2.49-.65.68-.09.08-20.48,21.44c-.22.23-.48.4-.77.51l-.22.1-10.53,5.02c-.09.04-.17.08-.27.1h-.18l-.06.06h-.07s-.04.03-.04.03c-.06,0-.1,0-.14.01l-33.91,2.84c-.06,0-.13,0-.2,0-.09,0-.18,0-.26-.02-.2-.03-.37-.08-.51-.16l-.14-.07h-.01c-.22-.12-.41-.26-.57-.44-.13-.14-.24-.3-.33-.5l-19.39-40.6c-.07-.14-.12-.27-.14-.4-.02-.1-.03-.18-.04-.24-.02-.25-.02-.44.02-.61.02-.1.04-.18.07-.26l.02-.08c.08-.25.23-.5.44-.71l.18-.19h0s.08-.08.08-.08l.16-.18.36-.37,20.14-21.07,2.13-2.23s.28-.3.33-.35l.42-.38Zm38.99,2.07c-.1,0-.2,0-.3.01l-23.83,1.99-1.08.29-7.37,3.52-.92.66-16.47,17.24c-.98,1.02-1.23,2.57-.62,3.85l12.82,26.83c.56,1.17,1.72,1.9,3.02,1.9.09,0,.18,0,.27-.01l23.82-1.99,1.08-.29,7.39-3.53.9-.65,16.51-17.28c.97-1.02,1.21-2.49.6-3.76l-12.84-26.88c-.56-1.15-1.73-1.9-3-1.9Z"></path><path fill="white" d="m204.48,74.82l-4.37-9.12c-.55-1.14-1.76-1.85-3.01-1.69l-15.17,1.52c-.92.09-1.78.5-2.43,1.16l-10.69,10.87c-.89.9-1.11,2.26-.57,3.4l4.37,9.11c.38.8,1.13,1.36,2.01,1.51.15.03.3.04.45.04.72,0,1.42-.29,1.94-.81l9.5-9.66c.62-.63,1.43-1.02,2.31-1.11l13.48-1.35c.88-.09,1.67-.6,2.1-1.37.44-.77.47-1.71.08-2.51Z"></path><path fill="white" d="m153.23,28.94c-.7-.18-.63-1.2.09-1.27,3.42-.38,9.29-.7,16.14.33,10.21,1.53,14.36,3.12,15.52,3.65.22.1.37.32.37.57h0c0,.32-.25.59-.57.62l-11.37.95c-.68.06-1.36,0-2.02-.17l-18.17-4.67Z"></path></svg>